<svg width="188" height="28" viewBox="0 0 188 28" fill="none" xmlns="http://www.w3.org/2000/svg">
<g clip-path="url(#clip0_9552_5303)">
<path d="M92.4312 5.73438H89.6572V24.4995H92.4312V5.73438Z" fill="white"/>
<path d="M48.2709 5.73438V19.9429C48.2709 20.129 48.2709 21.7565 46.4982 21.7565H30.1616C28.3889 21.7565 28.3889 20.129 28.3889 19.9429V5.73438H15.5879V24.4994H18.3788V8.48581H25.6008V20.6452C25.6008 22.1485 26.612 24.4994 29.5256 24.4994H47.1145C50.0338 24.4994 51.0463 22.1485 51.0463 20.6452C51.0463 19.1461 51.0435 6.40425 51.0435 5.73438H48.2709Z" fill="#FBFCFF"/>
<path d="M82.4777 5.73438L70.2125 21.9426L57.9446 5.73438H53.6094V24.4994H56.3961V8.23479L68.6316 24.4994H71.7949L84.0121 8.23479V24.4994H86.8058V5.73438H82.4777Z" fill="#FBFCFF"/>
<path d="M0 0.5V8.48637H10.0101V24.4986H12.7982V5.73493H2.78811V3.2317H92.432V0.5H0Z" fill="#FBFCFF"/>
</g>
<path d="M112.301 11.632C113.632 11.632 114.512 11.016 115.128 10.18L114.347 9.751C113.929 10.378 113.17 10.818 112.301 10.818C110.728 10.818 109.507 9.575 109.507 7.837C109.507 6.088 110.728 4.856 112.301 4.856C113.17 4.856 113.929 5.307 114.347 5.923L115.117 5.494C114.534 4.669 113.632 4.042 112.301 4.042C110.222 4.042 108.561 5.582 108.561 7.837C108.561 10.092 110.222 11.632 112.301 11.632ZM117.995 7.837C117.995 10.004 119.458 11.632 121.636 11.632C123.803 11.632 125.277 10.004 125.277 7.837C125.277 5.67 123.803 4.042 121.636 4.042C119.458 4.042 117.995 5.67 117.995 7.837ZM124.331 7.837C124.331 9.542 123.275 10.818 121.636 10.818C119.986 10.818 118.941 9.542 118.941 7.837C118.941 6.121 119.986 4.856 121.636 4.856C123.275 4.856 124.331 6.121 124.331 7.837ZM134.027 11.5L132.047 8.508C133.048 8.42 133.95 7.694 133.95 6.374C133.95 5.021 132.993 4.163 131.651 4.163H128.703V11.5H129.616V8.585H131.079L132.949 11.5H134.027ZM133.004 6.374C133.004 7.199 132.41 7.782 131.541 7.782H129.616V4.977H131.541C132.41 4.977 133.004 5.549 133.004 6.374ZM138.308 11.5V8.585H140.343C141.795 8.585 142.642 7.573 142.642 6.374C142.642 5.175 141.817 4.163 140.343 4.163H137.395V11.5H138.308ZM141.696 6.374C141.696 7.199 141.102 7.771 140.233 7.771H138.308V4.977H140.233C141.102 4.977 141.696 5.549 141.696 6.374ZM145.554 7.837C145.554 10.004 147.017 11.632 149.195 11.632C151.362 11.632 152.836 10.004 152.836 7.837C152.836 5.67 151.362 4.042 149.195 4.042C147.017 4.042 145.554 5.67 145.554 7.837ZM151.89 7.837C151.89 9.542 150.834 10.818 149.195 10.818C147.545 10.818 146.5 9.542 146.5 7.837C146.5 6.121 147.545 4.856 149.195 4.856C150.834 4.856 151.89 6.121 151.89 7.837ZM161.586 11.5L159.606 8.508C160.607 8.42 161.509 7.694 161.509 6.374C161.509 5.021 160.552 4.163 159.21 4.163H156.262V11.5H157.175V8.585H158.638L160.508 11.5H161.586ZM160.563 6.374C160.563 7.199 159.969 7.782 159.1 7.782H157.175V4.977H159.1C159.969 4.977 160.563 5.549 160.563 6.374ZM171.236 11.5L168.277 4.163H167.144L164.196 11.5H165.208L165.857 9.872H169.575L170.224 11.5H171.236ZM169.3 9.058H166.121L167.716 4.977L169.3 9.058ZM176.182 11.5V4.977H178.514V4.163H172.948V4.977H175.269V11.5H176.182ZM186.534 11.5V10.686H182.64V8.156H186.457V7.342H182.64V4.977H186.534V4.163H181.727V11.5H186.534ZM108.561 20.837C108.561 23.114 110.244 24.643 112.334 24.643C113.533 24.643 114.534 24.137 115.216 23.378V20.727H111.784V21.541H114.303V23.037C113.94 23.4 113.214 23.829 112.334 23.829C110.728 23.829 109.507 22.575 109.507 20.837C109.507 19.088 110.728 17.856 112.334 17.856C113.214 17.856 113.995 18.274 114.457 18.868L115.183 18.417C114.534 17.614 113.632 17.042 112.334 17.042C110.244 17.042 108.561 18.56 108.561 20.837ZM119.613 24.5V17.163H118.7V24.5H119.613ZM124.245 24.5V21.156H128.062V20.342H124.245V17.977H128.139V17.163H123.332V24.5H124.245ZM134.107 24.5V17.977H136.439V17.163H130.873V17.977H133.194V24.5H134.107ZM140.566 24.5V17.163H139.653V24.5H140.566ZM150.357 24.5V17.163H149.444V22.96L145.22 17.163H144.285V24.5H145.198V18.582L149.477 24.5H150.357ZM153.776 20.837C153.776 23.114 155.459 24.643 157.549 24.643C158.748 24.643 159.749 24.137 160.431 23.378V20.727H156.999V21.541H159.518V23.037C159.155 23.4 158.429 23.829 157.549 23.829C155.943 23.829 154.722 22.575 154.722 20.837C154.722 19.088 155.943 17.856 157.549 17.856C158.429 17.856 159.21 18.274 159.672 18.868L160.398 18.417C159.749 17.614 158.847 17.042 157.549 17.042C155.459 17.042 153.776 18.56 153.776 20.837Z" fill="white"/>
<defs>
<clipPath id="clip0_9552_5303">
<rect width="92.432" height="24" fill="white" transform="translate(0 0.5)"/>
</clipPath>
</defs>
</svg>
