<svg width="60" height="60" viewBox="0 0 60 60" fill="none" xmlns="http://www.w3.org/2000/svg">
<path d="M53.6299 19.47H6.37988V40.53H53.6299V19.47Z" stroke="#1B1C1E" stroke-linejoin="round"/>
<path d="M13.43 24.78H10.51V35.61H13.43V24.78Z" fill="#1B1C1E" stroke="#1B1C1E" stroke-linejoin="round"/>
<path d="M18.5799 24.78H15.6599V35.61H18.5799V24.78Z" fill="#1B1C1E" stroke="#1B1C1E" stroke-linejoin="round"/>
<path d="M26.8299 24.78H23.9099V28.39H26.8299V24.78Z" stroke="#1B1C1E" stroke-width="0.5" stroke-linejoin="round"/>
<path d="M26.8299 28.3899H23.9099V31.9999H26.8299V28.3899Z" stroke="#1B1C1E" stroke-width="0.5" stroke-linejoin="round"/>
<path d="M26.8299 32H23.9099V35.61H26.8299V32Z" stroke="#1B1C1E" stroke-width="0.5" stroke-linejoin="round"/>
<path d="M31.3099 24.78H28.3899V28.39H31.3099V24.78Z" stroke="#1B1C1E" stroke-width="0.5" stroke-linejoin="round"/>
<path d="M31.3099 28.3899H28.3899V31.9999H31.3099V28.3899Z" stroke="#1B1C1E" stroke-width="0.5" stroke-linejoin="round"/>
<path d="M31.3099 32H28.3899V35.61H31.3099V32Z" stroke="#1B1C1E" stroke-width="0.5" stroke-linejoin="round"/>
<path d="M35.7901 24.78H32.8701V28.39H35.7901V24.78Z" stroke="#1B1C1E" stroke-width="0.5" stroke-linejoin="round"/>
<path d="M35.7901 28.3899H32.8701V31.9999H35.7901V28.3899Z" stroke="#1B1C1E" stroke-width="0.5" stroke-linejoin="round"/>
<path d="M35.7901 32H32.8701V35.61H35.7901V32Z" stroke="#1B1C1E" stroke-width="0.5" stroke-linejoin="round"/>
<path d="M44.0401 24.78H41.1201V35.61H44.0401V24.78Z" fill="#1B1C1E" stroke="#1B1C1E" stroke-linejoin="round"/>
<path d="M49.19 24.78H46.27V35.61H49.19V24.78Z" fill="#1B1C1E" stroke="#1B1C1E" stroke-linejoin="round"/>
</svg>
