<svg width="334" height="213" viewBox="0 0 334 213" fill="none" xmlns="http://www.w3.org/2000/svg">
<rect width="334" height="213" fill="#F1F1F1"/>
<rect width="334" height="213" fill="#F1F1F1"/>
<path fill-rule="evenodd" clip-rule="evenodd" d="M145.494 81.5H188.506C190.431 81.5 192 83.0686 192 84.9939V128.006C192 129.931 190.431 131.5 188.506 131.5H145.494C143.569 131.5 142 129.931 142 128.006V84.9939C142 83.0686 143.569 81.5 145.494 81.5ZM188.506 129.301C189.219 129.301 189.8 128.719 189.8 128.007L189.806 128.007L189.806 116.694L182.406 109.294C182.156 109.05 181.831 108.913 181.487 108.913C181.138 108.913 180.812 109.05 180.569 109.294L173.813 116.057L178.981 121.225C179.412 121.657 179.412 122.351 178.981 122.782C178.769 123 178.487 123.107 178.206 123.107C177.925 123.107 177.643 122.994 177.431 122.782L156.506 101.857C156 101.35 155.181 101.35 154.675 101.857L144.2 112.331V128.007C144.2 128.72 144.781 129.301 145.494 129.301H188.506ZM183.956 107.738L189.8 113.581L189.8 84.9934C189.8 84.2806 189.218 83.6994 188.506 83.6994H145.493C144.781 83.6994 144.199 84.281 144.199 84.9934V109.224L153.125 100.306C153.781 99.6432 154.662 99.281 155.593 99.281C156.525 99.281 157.4 99.6432 158.062 100.306L172.256 114.5L179.019 107.738C179.675 107.075 180.556 106.713 181.488 106.713C182.419 106.713 183.294 107.075 183.956 107.738ZM167.161 100.06C167.161 96.8099 169.805 94.1602 173.061 94.1602C176.317 94.1602 178.961 96.8099 178.961 100.06C178.961 103.31 176.317 105.96 173.061 105.96C169.811 105.96 167.161 103.31 167.161 100.06ZM169.361 100.066C169.361 102.104 171.017 103.766 173.061 103.766C175.105 103.766 176.761 102.104 176.761 100.066C176.761 98.0286 175.099 96.3662 173.061 96.3662C171.023 96.3662 169.361 98.0285 169.361 100.066Z" fill="#595959"/>
</svg>
