<svg width="687" height="213" viewBox="0 0 687 213" fill="none" xmlns="http://www.w3.org/2000/svg">
<rect width="687" height="213" fill="#F1F1F1"/>
<path fill-rule="evenodd" clip-rule="evenodd" d="M321.994 81.5H365.006C366.931 81.5 368.5 83.0686 368.5 84.9939V128.006C368.5 129.931 366.931 131.5 365.006 131.5H321.994C320.069 131.5 318.5 129.931 318.5 128.006V84.9939C318.5 83.0686 320.069 81.5 321.994 81.5ZM365.006 129.301C365.719 129.301 366.3 128.719 366.3 128.007L366.306 128.007L366.306 116.694L358.906 109.294C358.656 109.05 358.331 108.913 357.987 108.913C357.638 108.913 357.312 109.05 357.069 109.294L350.313 116.057L355.481 121.225C355.912 121.657 355.912 122.351 355.481 122.782C355.269 123 354.987 123.107 354.706 123.107C354.425 123.107 354.143 122.994 353.931 122.782L333.006 101.857C332.5 101.35 331.681 101.35 331.175 101.857L320.7 112.331V128.007C320.7 128.72 321.281 129.301 321.994 129.301H365.006ZM360.456 107.738L366.3 113.581L366.3 84.9934C366.3 84.2806 365.718 83.6994 365.006 83.6994H321.993C321.281 83.6994 320.699 84.281 320.699 84.9934V109.224L329.625 100.306C330.281 99.6432 331.162 99.281 332.093 99.281C333.025 99.281 333.9 99.6432 334.562 100.306L348.756 114.5L355.519 107.738C356.175 107.075 357.056 106.713 357.988 106.713C358.919 106.713 359.794 107.075 360.456 107.738ZM343.66 100.06C343.66 96.8099 346.304 94.1602 349.56 94.1602C352.816 94.1602 355.46 96.8099 355.46 100.06C355.46 103.31 352.816 105.96 349.56 105.96C346.31 105.96 343.66 103.31 343.66 100.06ZM345.86 100.066C345.86 102.104 347.516 103.766 349.56 103.766C351.604 103.766 353.26 102.104 353.26 100.066C353.26 98.0286 351.598 96.3662 349.56 96.3662C347.522 96.3662 345.86 98.0285 345.86 100.066Z" fill="#595959"/>
</svg>
