<svg width="60" height="60" viewBox="0 0 60 60" fill="none" xmlns="http://www.w3.org/2000/svg">
<path d="M45.45 21.52H14.41C11.1183 21.52 8.44995 24.1884 8.44995 27.48V32.52C8.44995 35.8116 11.1183 38.48 14.41 38.48H45.45C48.7416 38.48 51.41 35.8116 51.41 32.52V27.48C51.41 24.1884 48.7416 21.52 45.45 21.52Z" stroke="#1B1C1E" stroke-width="0.5" stroke-miterlimit="10"/>
<path d="M20.2901 24.5801H17.3701V35.4101H20.2901V24.5801Z" fill="#1B1C1E" stroke="#1B1C1E" stroke-linejoin="round"/>
<path d="M25.43 24.5801H22.51V35.4101H25.43V24.5801Z" fill="#1B1C1E" stroke="#1B1C1E" stroke-linejoin="round"/>
<path d="M33.68 24.5801H30.76V28.1901H33.68V24.5801Z" stroke="#1B1C1E" stroke-width="0.5" stroke-linejoin="round"/>
<path d="M33.68 28.1899H30.76V31.7999H33.68V28.1899Z" stroke="#1B1C1E" stroke-width="0.5" stroke-linejoin="round"/>
<path d="M33.68 31.8101H30.76V35.4201H33.68V31.8101Z" stroke="#1B1C1E" stroke-width="0.5" stroke-linejoin="round"/>
<path d="M38.16 24.5801H35.24V28.1901H38.16V24.5801Z" stroke="#1B1C1E" stroke-width="0.5" stroke-linejoin="round"/>
<path d="M38.16 28.1899H35.24V31.7999H38.16V28.1899Z" stroke="#1B1C1E" stroke-width="0.5" stroke-linejoin="round"/>
<path d="M38.16 31.8101H35.24V35.4201H38.16V31.8101Z" stroke="#1B1C1E" stroke-width="0.5" stroke-linejoin="round"/>
<path d="M42.64 24.5801H39.72V28.1901H42.64V24.5801Z" stroke="#1B1C1E" stroke-width="0.5" stroke-linejoin="round"/>
<path d="M42.64 28.1899H39.72V31.7999H42.64V28.1899Z" stroke="#1B1C1E" stroke-width="0.5" stroke-linejoin="round"/>
<path d="M42.64 31.8101H39.72V35.4201H42.64V31.8101Z" stroke="#1B1C1E" stroke-width="0.5" stroke-linejoin="round"/>
<path d="M49.26 22.9001L51.4 21.3601" stroke="#1B1C1E" stroke-width="0.5" stroke-miterlimit="10"/>
<path d="M49.26 37.1001L51.4 38.6401" stroke="#1B1C1E" stroke-width="0.5" stroke-miterlimit="10"/>
<path d="M10.3399 22.9001L8.18994 21.3601" stroke="#1B1C1E" stroke-width="0.5" stroke-miterlimit="10"/>
<path d="M10.3399 37.1001L8.18994 38.6401" stroke="#1B1C1E" stroke-width="0.5" stroke-miterlimit="10"/>
<path d="M46.6299 19.47H13.3799C9.51389 19.47 6.37988 22.604 6.37988 26.47V33.53C6.37988 37.396 9.51389 40.53 13.3799 40.53H46.6299C50.4959 40.53 53.6299 37.396 53.6299 33.53V26.47C53.6299 22.604 50.4959 19.47 46.6299 19.47Z" stroke="#1B1C1E" stroke-miterlimit="10"/>
</svg>
