<svg width="60" height="60" viewBox="0 0 60 60" fill="none" xmlns="http://www.w3.org/2000/svg">
<path d="M40.9999 23.14C40.9999 20.2133 39.8373 17.4065 37.7679 15.3371C35.6984 13.2676 32.8916 12.105 29.9649 12.105C27.0383 12.105 24.2315 13.2676 22.162 15.3371C20.0925 17.4065 18.9299 20.2133 18.9299 23.14H23.5499C23.5499 21.4373 24.2263 19.8043 25.4303 18.6004C26.6343 17.3964 28.2672 16.72 29.9699 16.72C31.6726 16.72 33.3056 17.3964 34.5096 18.6004C35.7135 19.8043 36.3899 21.4373 36.3899 23.14H40.9999Z" stroke="#1B1C1E" stroke-linejoin="round"/>
<path d="M41.03 23.1201H18.96V47.8901H41.03V23.1201Z" stroke="#1B1C1E" stroke-linejoin="round"/>
<path d="M28.76 33.4V30.48H26.35V33.4H28.76Z" stroke="#1B1C1E" stroke-width="0.5" stroke-linejoin="round"/>
<path d="M26.3601 33.41V30.49H23.9501V33.41H26.3601Z" stroke="#1B1C1E" stroke-width="0.5" stroke-linejoin="round"/>
<path d="M23.95 33.41V30.49H21.5399V33.41H23.95Z" stroke="#1B1C1E" stroke-width="0.5" stroke-linejoin="round"/>
<path d="M28.76 38.88V35.96H26.35V38.88H28.76Z" stroke="#1B1C1E" stroke-width="0.5" stroke-linejoin="round"/>
<path d="M26.3601 38.89V35.97H23.9501V38.89H26.3601Z" stroke="#1B1C1E" stroke-width="0.5" stroke-linejoin="round"/>
<path d="M23.95 38.88V35.96H21.54V38.88H23.95Z" stroke="#1B1C1E" stroke-width="0.5" stroke-linejoin="round"/>
<path d="M28.77 44.3599V41.4399H26.36V44.3599H28.77Z" stroke="#1B1C1E" stroke-width="0.5" stroke-linejoin="round"/>
<path d="M26.3601 44.3599V41.4399H23.9501V44.3599H26.3601Z" stroke="#1B1C1E" stroke-width="0.5" stroke-linejoin="round"/>
<path d="M23.96 44.3599V41.4399H21.55V44.3599H23.96Z" stroke="#1B1C1E" stroke-width="0.5" stroke-linejoin="round"/>
</svg>
