<svg width="60" height="60" viewBox="0 0 60 60" fill="none" xmlns="http://www.w3.org/2000/svg">
<path d="M45.77 14.25H14.24V45.84H45.77V14.25Z" stroke="#1B1C1E" stroke-linejoin="round"/>
<path d="M38.8901 21.05H21.1101V38.8601H38.8901V21.05Z" stroke="#1B1C1E" stroke-linejoin="round"/>
<path d="M18.14 22.28V26.58C17.7159 26.4029 17.3536 26.1042 17.0988 25.7216C16.844 25.3391 16.708 24.8897 16.708 24.43C16.708 23.9704 16.844 23.521 17.0988 23.1384C17.3536 22.7558 17.7159 22.4572 18.14 22.28V22.28Z" stroke="#1B1C1E" stroke-width="0.5" stroke-linejoin="round"/>
<path d="M18.1401 27.8V32.1101C17.7129 31.9344 17.3476 31.6358 17.0904 31.2521C16.8333 30.8684 16.696 30.4169 16.696 29.955C16.696 29.4932 16.8333 29.0417 17.0904 28.658C17.3476 28.2743 17.7129 27.9757 18.1401 27.8V27.8Z" stroke="#1B1C1E" stroke-width="0.5" stroke-linejoin="round"/>
<path d="M18.14 33.3301V37.6301C17.7159 37.4529 17.3536 37.1543 17.0988 36.7717C16.844 36.3891 16.708 35.9397 16.708 35.4801C16.708 35.0204 16.844 34.571 17.0988 34.1885C17.3536 33.8059 17.7159 33.5072 18.14 33.3301V33.3301Z" stroke="#1B1C1E" stroke-width="0.5" stroke-linejoin="round"/>
<path d="M14.46 14.1599L18.14 21.0499V38.8599L14.46 45.7499" stroke="#1B1C1E" stroke-width="0.5" stroke-linejoin="round"/>
<path d="M45.77 14.25H14.24V45.84H45.77V14.25Z" stroke="#1B1C1E" stroke-linejoin="round"/>
</svg>
