<svg width="33" height="21" viewBox="0 0 33 21" fill="none" xmlns="http://www.w3.org/2000/svg">
<mask id="path-1-inside-1_11831_6075" fill="white">
<path fill-rule="evenodd" clip-rule="evenodd" d="M31.5457 5.35308C32.4771 6.28993 33 7.55735 33 8.87846V10.5V12.1215C33 13.4427 32.4771 14.7101 31.5457 15.6469L27.6894 19.5254C26.7509 20.4693 25.4748 21 24.1437 21H5C2.23858 21 0 18.7614 0 16V10.5V5C0 2.23858 2.23858 0 5 0H24.1437C25.4748 0 26.7509 0.53073 27.6894 1.47462L31.5457 5.35308Z"/>
</mask>
<path d="M33 10.5L34 10.5V10.5H33ZM27.6894 19.5254L28.3985 20.2304L27.6894 19.5254ZM33 12.1215L32 12.1215L33 12.1215ZM31.5457 15.6469L30.8365 14.9418L31.5457 15.6469ZM31.5457 5.35308L30.8365 6.05816L31.5457 5.35308ZM34 10.5V8.87846H32V10.5H34ZM32 10.5V12.1215L34 12.1215V10.5L32 10.5ZM30.8365 14.9418L26.9803 18.8203L28.3985 20.2304L32.2548 16.352L30.8365 14.9418ZM24.1437 20H5V22H24.1437V20ZM1 16V10.5H-1V16H1ZM-1 5V10.5H1V5H-1ZM24.1437 -1H5V1H24.1437V-1ZM32.2548 4.64801L28.3985 0.76955L26.9803 2.1797L30.8365 6.05816L32.2548 4.64801ZM24.1437 1C25.2086 1 26.2295 1.42458 26.9803 2.1797L28.3985 0.76955C27.2723 -0.363124 25.741 -1 24.1437 -1V1ZM5 20C2.79086 20 1 18.2091 1 16H-1C-1 19.3137 1.68629 22 5 22V20ZM26.9803 18.8203C26.2295 19.5754 25.2086 20 24.1437 20V22C25.741 22 27.2723 21.3631 28.3985 20.2304L26.9803 18.8203ZM32 12.1215C32 13.1784 31.5817 14.1924 30.8365 14.9418L32.2548 16.352C33.3726 15.2278 34 13.7069 34 12.1215L32 12.1215ZM1 5C1 2.79086 2.79086 1 5 1V-1C1.68629 -1 -1 1.68629 -1 5H1ZM34 8.87846C34 7.29312 33.3726 5.77222 32.2548 4.64801L30.8365 6.05816C31.5817 6.80763 32 7.82157 32 8.87846H34Z" fill="#1B1C1E" mask="url(#path-1-inside-1_11831_6075)"/>
<circle cx="25.5" cy="10.5" r="2.5" stroke="#1B1C1E"/>
<rect x="5.25" y="9.75" width="12.75" height="1.5" fill="#1B1C1E"/>
<rect x="5.25" y="6" width="12.75" height="1.5" fill="#1B1C1E"/>
<rect x="5.25" y="13.5" width="12.75" height="1.5" fill="#1B1C1E"/>
</svg>
