<svg width="37" height="22" viewBox="0 0 37 22" fill="none" xmlns="http://www.w3.org/2000/svg">
<mask id="path-1-inside-1_11831_6025" fill="white">
<path fill-rule="evenodd" clip-rule="evenodd" d="M31.5457 5.85308C32.4771 6.78993 33 8.05735 33 9.37846V11V12.6215C33 13.9427 32.4771 15.2101 31.5457 16.1469L27.6894 20.0254C26.7509 20.9693 25.4748 21.5 24.1437 21.5H5C2.23858 21.5 0 19.2614 0 16.5V11V5.5C0 2.73858 2.23858 0.5 5 0.5H24.1437C25.4748 0.5 26.7509 1.03073 27.6894 1.97462L31.5457 5.85308Z"/>
</mask>
<path d="M33 11L34 11V11H33ZM27.6894 20.0254L28.3985 20.7304L27.6894 20.0254ZM33 12.6215L32 12.6215L33 12.6215ZM31.5457 16.1469L30.8365 15.4418L31.5457 16.1469ZM31.5457 5.85308L30.8365 6.55816L31.5457 5.85308ZM34 11V9.37846H32V11H34ZM32 11V12.6215L34 12.6215V11L32 11ZM30.8365 15.4418L26.9803 19.3203L28.3985 20.7304L32.2548 16.852L30.8365 15.4418ZM24.1437 20.5H5V22.5H24.1437V20.5ZM1 16.5V11H-1V16.5H1ZM-1 5.5V11H1V5.5H-1ZM24.1437 -0.5H5V1.5H24.1437V-0.5ZM32.2548 5.14801L28.3985 1.26955L26.9803 2.6797L30.8365 6.55816L32.2548 5.14801ZM24.1437 1.5C25.2086 1.5 26.2295 1.92458 26.9803 2.6797L28.3985 1.26955C27.2723 0.136876 25.741 -0.5 24.1437 -0.5V1.5ZM5 20.5C2.79086 20.5 1 18.7091 1 16.5H-1C-1 19.8137 1.68629 22.5 5 22.5V20.5ZM26.9803 19.3203C26.2295 20.0754 25.2086 20.5 24.1437 20.5V22.5C25.741 22.5 27.2723 21.8631 28.3985 20.7304L26.9803 19.3203ZM32 12.6215C32 13.6784 31.5817 14.6924 30.8365 15.4418L32.2548 16.852C33.3726 15.7278 34 14.2069 34 12.6215L32 12.6215ZM1 5.5C1 3.29086 2.79086 1.5 5 1.5V-0.5C1.68629 -0.5 -1 2.18629 -1 5.5H1ZM34 9.37846C34 7.79312 33.3726 6.27222 32.2548 5.14801L30.8365 6.55816C31.5817 7.30763 32 8.32157 32 9.37846H34Z" fill="#1B1C1E" mask="url(#path-1-inside-1_11831_6025)"/>
<circle cx="25.5" cy="11" r="2.5" stroke="#1B1C1E"/>
<rect x="25.5" y="10.25" width="11.25" height="1.5" fill="#1B1C1E"/>
<path d="M9.85749 9.7355C9.57334 9.26192 8.95908 9.10836 8.4855 9.39251C8.01192 9.67666 7.85836 10.2909 8.14251 10.7645L9.85749 9.7355ZM11.25 14L10.3925 14.5145C10.5763 14.8208 10.9095 15.0058 11.2667 14.9999C11.6238 14.9939 11.9507 14.7979 12.1242 14.4856L11.25 14ZM15.8742 7.73564C16.1424 7.25286 15.9684 6.64406 15.4856 6.37584C15.0029 6.10763 14.3941 6.28157 14.1258 6.76436L15.8742 7.73564ZM8.14251 10.7645L10.3925 14.5145L12.1075 13.4855L9.85749 9.7355L8.14251 10.7645ZM12.1242 14.4856L15.8742 7.73564L14.1258 6.76436L10.3758 13.5144L12.1242 14.4856Z" fill="#1B1C1E"/>
</svg>
