<svg width="63" height="31" viewBox="0 0 63 31" fill="none" xmlns="http://www.w3.org/2000/svg">
<path d="M13.1775 10.24C13.4442 10.24 13.9175 10.1267 14.5975 9.9C15.2775 9.67333 15.8575 9.56 16.3375 9.56C17.1375 9.56 17.8508 9.77333 18.4775 10.2C18.6508 10.3333 18.8242 10.48 18.9975 10.64C19.1708 10.8 19.3442 10.9867 19.5175 11.2C18.9975 11.6533 18.6175 12.0533 18.3775 12.4C17.9375 13.0133 17.7175 13.7 17.7175 14.46C17.7175 15.2867 17.9508 16.0333 18.4175 16.7C18.8708 17.3533 19.3975 17.7733 19.9975 17.96C19.8642 18.36 19.6975 18.7733 19.4975 19.2C19.2975 19.6133 19.0575 20.0333 18.7775 20.46C17.9242 21.7533 17.0642 22.4 16.1975 22.4C15.8375 22.4 15.3642 22.2933 14.7775 22.08C14.2042 21.88 13.7042 21.78 13.2775 21.78C12.8375 21.78 12.3575 21.8867 11.8375 22.1C11.2775 22.3267 10.8375 22.44 10.5175 22.44C9.50417 22.44 8.50417 21.58 7.5175 19.86C6.53083 18.1533 6.0375 16.4733 6.0375 14.82C6.0375 13.3 6.41083 12.0533 7.1575 11.08C7.9175 10.12 8.87083 9.64 10.0175 9.64C10.5108 9.64 11.1042 9.74 11.7975 9.94C12.5042 10.14 12.9642 10.24 13.1775 10.24ZM16.2375 6.2C16.2375 6.62667 16.1375 7.08667 15.9375 7.58C15.7375 8.07333 15.4308 8.53333 15.0175 8.96C14.6308 9.32 14.2642 9.56 13.9175 9.68C13.6642 9.74667 13.3242 9.8 12.8975 9.84C12.9108 8.85333 13.1642 8 13.6575 7.28C14.1642 6.54667 15.0042 6.04667 16.1775 5.78C16.2042 5.87333 16.2175 5.95333 16.2175 6.02C16.2308 6.08667 16.2375 6.14667 16.2375 6.2ZM21.1183 7.72H27.4183C28.4316 7.72 29.2583 7.86667 29.8983 8.16C30.5383 8.45333 31.0316 8.82 31.3783 9.26C31.7249 9.7 31.9583 10.18 32.0783 10.7C32.2116 11.22 32.2783 11.7 32.2783 12.14C32.2783 12.58 32.2116 13.06 32.0783 13.58C31.9583 14.0867 31.7249 14.56 31.3783 15C31.0316 15.44 30.5383 15.8067 29.8983 16.1C29.2583 16.38 28.4316 16.52 27.4183 16.52H23.6183V22H21.1183V7.72ZM23.6183 14.48H27.2783C27.5583 14.48 27.8449 14.44 28.1383 14.36C28.4316 14.28 28.6983 14.1533 28.9383 13.98C29.1916 13.7933 29.3916 13.5533 29.5383 13.26C29.6983 12.9533 29.7783 12.5733 29.7783 12.12C29.7783 11.6533 29.7116 11.2667 29.5783 10.96C29.4449 10.6533 29.2649 10.4133 29.0383 10.24C28.8116 10.0533 28.5516 9.92667 28.2583 9.86C27.9649 9.79333 27.6516 9.76 27.3183 9.76H23.6183V14.48ZM41.5781 19.7C41.5781 19.98 41.6115 20.18 41.6781 20.3C41.7581 20.42 41.9048 20.48 42.1181 20.48C42.1848 20.48 42.2648 20.48 42.3581 20.48C42.4515 20.48 42.5581 20.4667 42.6781 20.44V22.02C42.5981 22.0467 42.4915 22.0733 42.3581 22.1C42.2381 22.14 42.1115 22.1733 41.9781 22.2C41.8448 22.2267 41.7115 22.2467 41.5781 22.26C41.4448 22.2733 41.3315 22.28 41.2381 22.28C40.7715 22.28 40.3848 22.1867 40.0781 22C39.7715 21.8133 39.5715 21.4867 39.4781 21.02C39.0248 21.46 38.4648 21.78 37.7981 21.98C37.1448 22.18 36.5115 22.28 35.8981 22.28C35.4315 22.28 34.9848 22.2133 34.5581 22.08C34.1315 21.96 33.7515 21.78 33.4181 21.54C33.0981 21.2867 32.8381 20.9733 32.6381 20.6C32.4515 20.2133 32.3581 19.7667 32.3581 19.26C32.3581 18.62 32.4715 18.1 32.6981 17.7C32.9381 17.3 33.2448 16.9867 33.6181 16.76C34.0048 16.5333 34.4315 16.3733 34.8981 16.28C35.3781 16.1733 35.8581 16.0933 36.3381 16.04C36.7515 15.96 37.1448 15.9067 37.5181 15.88C37.8915 15.84 38.2181 15.78 38.4981 15.7C38.7915 15.62 39.0181 15.5 39.1781 15.34C39.3515 15.1667 39.4381 14.9133 39.4381 14.58C39.4381 14.2867 39.3648 14.0467 39.2181 13.86C39.0848 13.6733 38.9115 13.5333 38.6981 13.44C38.4981 13.3333 38.2715 13.2667 38.0181 13.24C37.7648 13.2 37.5248 13.18 37.2981 13.18C36.6581 13.18 36.1315 13.3133 35.7181 13.58C35.3048 13.8467 35.0715 14.26 35.0181 14.82H32.7381C32.7781 14.1533 32.9381 13.6 33.2181 13.16C33.4981 12.72 33.8515 12.3667 34.2781 12.1C34.7181 11.8333 35.2115 11.6467 35.7581 11.54C36.3048 11.4333 36.8648 11.38 37.4381 11.38C37.9448 11.38 38.4448 11.4333 38.9381 11.54C39.4315 11.6467 39.8715 11.82 40.2581 12.06C40.6581 12.3 40.9781 12.6133 41.2181 13C41.4581 13.3733 41.5781 13.8333 41.5781 14.38V19.7ZM39.2981 16.82C38.9515 17.0467 38.5248 17.1867 38.0181 17.24C37.5115 17.28 37.0048 17.3467 36.4981 17.44C36.2581 17.48 36.0248 17.54 35.7981 17.62C35.5715 17.6867 35.3715 17.7867 35.1981 17.92C35.0248 18.04 34.8848 18.2067 34.7781 18.42C34.6848 18.62 34.6381 18.8667 34.6381 19.16C34.6381 19.4133 34.7115 19.6267 34.8581 19.8C35.0048 19.9733 35.1781 20.1133 35.3781 20.22C35.5915 20.3133 35.8181 20.38 36.0581 20.42C36.3115 20.46 36.5381 20.48 36.7381 20.48C36.9915 20.48 37.2648 20.4467 37.5581 20.38C37.8515 20.3133 38.1248 20.2 38.3781 20.04C38.6448 19.88 38.8648 19.68 39.0381 19.44C39.2115 19.1867 39.2981 18.88 39.2981 18.52V16.82ZM41.6714 11.66H44.1714L46.8714 19.38H46.9114L49.5314 11.66H51.9114L47.8914 22.56C47.7047 23.0267 47.5181 23.4733 47.3314 23.9C47.1581 24.3267 46.9381 24.7 46.6714 25.02C46.4181 25.3533 46.0981 25.6133 45.7114 25.8C45.3247 26 44.8314 26.1 44.2314 26.1C43.6981 26.1 43.1714 26.06 42.6514 25.98V24.06C42.8381 24.0867 43.0181 24.1133 43.1914 24.14C43.3647 24.18 43.5447 24.2 43.7314 24.2C43.9981 24.2 44.2181 24.1667 44.3914 24.1C44.5647 24.0333 44.7047 23.9333 44.8114 23.8C44.9314 23.68 45.0314 23.5333 45.1114 23.36C45.1914 23.1867 45.2647 22.9867 45.3314 22.76L45.5914 21.96L41.6714 11.66Z" fill="white"/>
</svg>
