<svg width="12" height="12" viewBox="0 0 12 12" fill="none" xmlns="http://www.w3.org/2000/svg">
<path d="M2.01179 5.81351C1.62127 5.42298 0.988105 5.42298 0.597581 5.81351C0.207056 6.20403 0.207056 6.8372 0.597581 7.22772L2.01179 5.81351ZM5.4786 10.6945L4.77149 11.4016C4.99338 11.6235 5.30654 11.7284 5.6173 11.6849C5.92806 11.6413 6.20037 11.4545 6.35276 11.1802L5.4786 10.6945ZM11.5701 1.78887C11.8384 1.30608 11.6644 0.697279 11.1816 0.429065C10.6989 0.160852 10.09 0.334796 9.82183 0.81758L11.5701 1.78887ZM0.597581 7.22772L4.77149 11.4016L6.18571 9.98742L2.01179 5.81351L0.597581 7.22772ZM6.35276 11.1802L11.5701 1.78887L9.82183 0.81758L4.60444 10.2089L6.35276 11.1802Z" fill="#1B1C1E"/>
</svg>
