<svg width="16" height="18" viewBox="0 0 16 18" fill="none" xmlns="http://www.w3.org/2000/svg">
<path d="M15.7739 4.20769L8.15423 0.537298C8.1038 0.512755 8.04845 0.5 7.99236 0.5C7.93627 0.5 7.88091 0.512755 7.83048 0.537298L0.210846 4.20769C0.147854 4.23829 0.0947046 4.28595 0.0574344 4.34524C0.0201642 4.40453 0.000266475 4.47308 0 4.54312V13.457C0.000207269 13.5271 0.020081 13.5956 0.0573579 13.6549C0.0946349 13.7142 0.147817 13.7619 0.210846 13.7924L7.83099 17.4631C7.8814 17.4874 7.93665 17.5 7.99261 17.5C8.04858 17.5 8.10382 17.4874 8.15423 17.4631L15.7739 13.7927C15.8369 13.7621 15.8901 13.7145 15.9274 13.6552C15.9646 13.5959 15.9845 13.5273 15.9847 13.4573V4.54312C15.9844 4.47308 15.9646 4.40453 15.9273 4.34524C15.89 4.28595 15.8369 4.23829 15.7739 4.20769ZM7.99236 1.2868L14.7541 4.54413L13.0083 5.38523L6.24622 2.12689L7.99236 1.2868ZM5.39877 2.54503L12.1504 5.79728L11 6.35167L4.25092 3.10043L5.39877 2.54503ZM12.4805 6.46458V8.75192L11.3867 9.27916V6.99157L12.4805 6.46458ZM15.2393 13.2236L8.36508 16.5357V8.44719L9.99349 7.66267C10.0376 7.64146 10.077 7.61176 10.1096 7.57528C10.1422 7.53879 10.1673 7.49624 10.1835 7.45006C10.1996 7.40387 10.2065 7.35496 10.2037 7.30612C10.2009 7.25727 10.1885 7.20946 10.1672 7.1654C10.146 7.12135 10.1162 7.08192 10.0797 7.04938C10.0432 7.01683 10.0006 6.99181 9.95437 6.97573C9.90816 6.95966 9.85924 6.95285 9.8104 6.9557C9.76156 6.95855 9.71376 6.97099 9.66974 6.99233L7.99236 7.80019L7.36591 7.49851C7.29968 7.46656 7.22548 7.45492 7.15265 7.46506C7.07982 7.47521 7.01163 7.50668 6.95666 7.55552C6.90169 7.60436 6.8624 7.66838 6.84375 7.73951C6.8251 7.81064 6.82792 7.88569 6.85186 7.95522C6.86786 8.00149 6.8929 8.04412 6.92552 8.08062C6.95815 8.11712 6.99771 8.14677 7.0419 8.16784L7.61963 8.44694V16.5357L0.745446 13.2236V5.13582L5.99122 7.66267C6.08047 7.70356 6.18206 7.70839 6.27478 7.67615C6.3675 7.6439 6.44417 7.57708 6.48878 7.48963C6.51007 7.44559 6.52247 7.39778 6.52526 7.34894C6.52806 7.30011 6.52121 7.25119 6.50509 7.20501C6.48897 7.15882 6.46391 7.11626 6.43133 7.07977C6.39875 7.04328 6.3593 7.01356 6.31523 6.99233L1.23032 4.54312L3.38013 3.50741L10.6413 7.00502V9.87212C10.6412 9.93527 10.6572 9.9974 10.6879 10.0526C10.7185 10.1079 10.7627 10.1544 10.8163 10.1877C10.87 10.2204 10.9309 10.2392 10.9937 10.2426C11.0564 10.246 11.119 10.2337 11.1759 10.207L13.0151 9.32128C13.0781 9.29067 13.1313 9.24302 13.1685 9.18373C13.2058 9.12444 13.2257 9.05588 13.226 8.98585V6.10556L15.2393 5.13582V13.2236Z" fill="#303030"/>
</svg>
