<svg width="22" height="22" viewBox="0 0 22 22" fill="none" xmlns="http://www.w3.org/2000/svg">
<path d="M19.9959 17.5228H2.00574C1.28387 17.5228 0.694336 16.9333 0.694336 16.2114V5.78895C0.694336 5.06707 1.28387 4.47754 2.00574 4.47754H19.9959C20.7178 4.47754 21.3073 5.06707 21.3073 5.78895V16.2114C21.3073 16.9333 20.7178 17.5228 19.9959 17.5228Z" fill="#9E9E9E"/>
<path d="M0.692383 6.68262H21.3088V9.44465H0.692383V6.68262Z" fill="#424242"/>
<path d="M19.628 12.7429H2.38383C2.21539 12.7429 2.07617 12.6054 2.07617 12.4353V10.9898C2.07617 10.8213 2.21367 10.6821 2.38383 10.6821H19.628C19.7965 10.6821 19.9357 10.8196 19.9357 10.9898V12.4353C19.934 12.6037 19.7965 12.7429 19.628 12.7429Z" fill="white"/>
<path d="M4.12158 12.1156C4.21783 11.93 4.24361 11.7134 4.32955 11.5227C4.41549 11.3319 4.60283 11.1548 4.80908 11.1875C4.99986 11.2184 5.11846 11.4092 5.18893 11.588C5.28689 11.8372 5.34018 12.1036 5.34705 12.3717C5.34877 12.4267 5.34533 12.4869 5.30924 12.5299C5.24564 12.602 5.11502 12.5659 5.06518 12.4834C5.01533 12.4009 5.02736 12.2961 5.04971 12.2016C5.15627 11.7633 5.50002 11.3903 5.92799 11.2494C5.97268 11.2339 6.01908 11.2219 6.06549 11.2305C6.16518 11.2494 6.22018 11.3525 6.26486 11.4419C6.36971 11.6464 6.4969 11.8406 6.64299 12.0177C6.70143 12.0899 6.76846 12.1603 6.85783 12.1878C7.15174 12.2738 7.32189 11.8406 7.60549 11.7255C7.9458 11.588 8.27752 11.9472 8.63846 12.0142C9.16611 12.1122 9.44627 11.7014 9.90861 11.5966C9.97049 11.5828 10.0375 11.5742 10.0994 11.5914C10.2128 11.6241 10.2833 11.7324 10.3503 11.8303C10.5067 12.0606 10.7302 12.2875 11.0086 12.2892C11.1856 12.2909 11.3489 12.1999 11.5105 12.1225C12.0828 11.8492 12.7583 11.7358 13.3564 11.9455" stroke="#424242" stroke-miterlimit="10" stroke-linecap="round" stroke-linejoin="round"/>
</svg>
