<svg width="36" height="21" viewBox="0 0 36 21" fill="none" xmlns="http://www.w3.org/2000/svg">
<path fill-rule="evenodd" clip-rule="evenodd" d="M18 0H19V11.5234C19.18 11.5345 19.3554 11.6282 19.4536 11.7832C19.4995 11.8557 19.5474 11.928 19.5973 12H35V13H20.4323C21.0934 13.6715 21.9011 14.2705 22.7516 14.6971C24.1009 15.3739 25.4477 15.5681 26.4816 15.0846C26.7317 14.9677 27.0542 15.062 27.202 15.2953C27.3497 15.5286 27.2666 15.8126 27.0165 15.9295C25.5548 16.613 23.8018 16.2743 22.2881 15.515C21.0791 14.9085 19.9524 14.0026 19.1253 13H19V20H18V13H17.6247C16.7976 14.0026 15.6709 14.9085 14.4619 15.515C12.9482 16.2743 11.1952 16.613 9.73353 15.9295C9.48338 15.8126 9.40034 15.5286 9.54805 15.2953C9.69576 15.062 10.0183 14.9677 10.2684 15.0846C11.3023 15.5681 12.6491 15.3739 13.9984 14.6971C14.8489 14.2705 15.6566 13.6715 16.3177 13H1V12H17.1527C17.2026 11.928 17.2505 11.8557 17.2964 11.7832C17.4408 11.5551 17.7524 11.4598 18 11.5651V0Z" fill="#1B1C1E"/>
<circle cx="22" cy="9" r="3.5" stroke="#1B1C1E"/>
<circle cx="15" cy="9" r="3.5" stroke="#1B1C1E"/>
<rect x="0.5" y="0.5" width="35" height="20" rx="4.5" stroke="#1B1C1E"/>
</svg>
