<svg width="13" height="14" viewBox="0 0 13 14" fill="none" xmlns="http://www.w3.org/2000/svg">
<path fill-rule="evenodd" clip-rule="evenodd" d="M6.5 12.5C9.53757 12.5 12 10.0376 12 7C12 3.96243 9.53757 1.5 6.5 1.5C3.46243 1.5 1 3.96243 1 7C1 10.0376 3.46243 12.5 6.5 12.5ZM6.5 13.5C10.0899 13.5 13 10.5899 13 7C13 3.41015 10.0899 0.5 6.5 0.5C2.91015 0.5 0 3.41015 0 7C0 10.5899 2.91015 13.5 6.5 13.5ZM7 6V10H6V6H7ZM6.49911 5.18182C6.82546 5.18182 7.09002 4.91726 7.09002 4.59091C7.09002 4.26456 6.82546 4 6.49911 4C6.17276 4 5.9082 4.26456 5.9082 4.59091C5.9082 4.91726 6.17276 5.18182 6.49911 5.18182Z" fill="#1B1C1E"/>
</svg>
