<svg width="36" height="21" viewBox="0 0 36 21" fill="none" xmlns="http://www.w3.org/2000/svg">
<path d="M6.75 14.38L9.69983 6.87634H11.3423L14.2866 14.38H12.7925L12.2432 12.9298H8.79895L8.24414 14.38H6.75ZM9.16699 11.7708H11.8696L10.5183 8.1947L9.16699 11.7708Z" fill="#1B1C1E"/>
<path d="M15.0941 14.38V6.87634H18.7855C19.4557 6.87634 19.9794 7.05762 20.3566 7.42017C20.7338 7.77905 20.9224 8.23499 20.9224 8.78796C20.9224 9.2384 20.796 9.61926 20.5433 9.93054C20.2943 10.2382 19.9867 10.4304 19.6205 10.5073C20.027 10.5696 20.3694 10.7783 20.6477 11.1335C20.9297 11.4851 21.0707 11.8879 21.0707 12.342C21.0707 12.9463 20.8784 13.437 20.4939 13.8142C20.113 14.1914 19.5784 14.38 18.8899 14.38H15.0941ZM16.4125 13.2209H18.5823C18.9375 13.2209 19.2158 13.1294 19.4172 12.9463C19.6187 12.7595 19.7194 12.5032 19.7194 12.1772C19.7194 11.8806 19.6187 11.6316 19.4172 11.4302C19.2158 11.2288 18.9375 11.1281 18.5823 11.1281H16.4125V13.2209ZM16.4125 9.96899H18.5273C18.8533 9.96899 19.1096 9.8811 19.2964 9.70532C19.4832 9.52588 19.5765 9.2915 19.5765 9.0022C19.5765 8.72021 19.4832 8.4895 19.2964 8.31006C19.1096 8.12695 18.8533 8.0354 18.5273 8.0354H16.4125V9.96899Z" fill="#1B1C1E"/>
<path d="M22.0759 10.6337C22.0759 10.066 22.1766 9.5387 22.3781 9.05164C22.5831 8.56458 22.8615 8.15442 23.213 7.82117C23.5646 7.48425 23.9821 7.22241 24.4655 7.03564C24.9489 6.84521 25.4652 6.75 26.0145 6.75C26.7177 6.75 27.3182 6.90564 27.8163 7.21692C28.3143 7.52454 28.7153 7.9292 29.0193 8.43091L27.9042 9.01318C27.7174 8.69092 27.4537 8.42908 27.1132 8.22766C26.7726 8.02258 26.4064 7.92004 26.0145 7.92004C25.2711 7.92004 24.6541 8.17456 24.1633 8.68359C23.6726 9.19263 23.4272 9.84265 23.4272 10.6337C23.4272 11.4137 23.6726 12.0619 24.1633 12.5782C24.6541 13.0909 25.2711 13.3473 26.0145 13.3473C26.4027 13.3473 26.7671 13.2448 27.1077 13.0397C27.4519 12.8346 27.7174 12.5728 27.9042 12.2542L29.0303 12.8145C28.3088 13.9497 27.3036 14.5173 26.0145 14.5173C25.4652 14.5173 24.9489 14.4221 24.4655 14.2317C23.9821 14.0413 23.5646 13.7794 23.213 13.4462C22.8615 13.1093 22.5831 12.6973 22.3781 12.2102C22.1766 11.7231 22.0759 11.1976 22.0759 10.6337Z" fill="#1B1C1E"/>
<rect x="0.5" y="0.5" width="35" height="20" rx="4.5" stroke="#1B1C1E"/>
</svg>
