<svg width="32" height="33" viewBox="0 0 32 33" fill="none" xmlns="http://www.w3.org/2000/svg">
<path fill-rule="evenodd" clip-rule="evenodd" d="M2.23607 0.5H29.7639C30.9961 0.5 32 1.50393 32 2.73607V30.2639C32 31.4961 30.9958 32.5 29.7639 32.5H2.23607C1.00393 32.5 0 31.4958 0 30.2639V2.73607C0 1.50393 1.00393 0.5 2.23607 0.5ZM29.7639 31.0924C30.2201 31.0924 30.5921 30.7202 30.5921 30.2643L30.5961 30.2642L30.5958 23.0242L25.8598 18.2881C25.6999 18.1322 25.4917 18.0443 25.2719 18.0443C25.0481 18.0443 24.8399 18.1322 24.684 18.2881L20.36 22.6163L23.668 25.9243C23.944 26.2005 23.944 26.6444 23.668 26.9204C23.5319 27.0602 23.3519 27.1282 23.1719 27.1282C22.992 27.1282 22.8117 27.0562 22.6759 26.9204L9.28372 13.5282C8.95979 13.2043 8.4358 13.2043 8.11186 13.5282L1.40793 20.2321V30.2643C1.40793 30.7205 1.78016 31.0924 2.23607 31.0924H29.7639ZM26.8521 17.2922L30.5921 21.0321L30.5918 2.73579C30.5918 2.27957 30.2196 1.90764 29.7636 1.90764H2.23579C1.77957 1.90764 1.40764 2.27987 1.40764 2.73579V18.2436L7.11971 12.5358C7.53993 12.1117 8.10379 11.8798 8.69979 11.8798C9.29579 11.8798 9.85575 12.1117 10.2799 12.5358L19.3641 21.6201L23.692 17.2922C24.1122 16.8681 24.6761 16.6362 25.2721 16.6362C25.8681 16.6362 26.428 16.8681 26.8521 17.2922ZM16.1035 12.3775C16.1035 10.2974 17.7954 8.60156 19.8794 8.60156C21.9634 8.60156 23.6554 10.2974 23.6554 12.3775C23.6554 14.4576 21.9634 16.1534 19.8794 16.1534C17.7994 16.1534 16.1035 14.4576 16.1035 12.3775ZM17.5114 12.3814C17.5114 13.6855 18.5714 14.7494 19.8794 14.7494C21.1874 14.7494 22.2474 13.6856 22.2474 12.3814C22.2474 11.0773 21.1836 10.0134 19.8794 10.0134C18.5754 10.0134 17.5114 11.0773 17.5114 12.3814Z" fill="#595959"/>
</svg>
