<svg width="136" height="179" viewBox="0 0 136 179" fill="none" xmlns="http://www.w3.org/2000/svg">
<rect width="136" height="179" fill="#F1F1F1"/>
<path fill-rule="evenodd" clip-rule="evenodd" d="M46.4939 64.5H89.5061C91.4314 64.5 93 66.0686 93 67.9939V111.006C93 112.931 91.4309 114.5 89.5061 114.5H46.4939C44.5686 114.5 43 112.931 43 111.006V67.9939C43 66.0686 44.5686 64.5 46.4939 64.5ZM89.5061 112.301C90.219 112.301 90.8001 111.719 90.8001 111.007L90.8064 111.007L90.806 99.6941L83.4059 92.294C83.1561 92.0503 82.8308 91.9129 82.4873 91.9129C82.1376 91.9129 81.8124 92.0503 81.5687 92.294L74.8126 99.0567L79.9813 104.225C80.4125 104.657 80.4125 105.351 79.9813 105.782C79.7686 106 79.4874 106.107 79.2062 106.107C78.925 106.107 78.6433 105.994 78.431 105.782L57.5058 84.8566C56.9997 84.3504 56.1809 84.3504 55.6748 84.8566L45.1999 95.3315V111.007C45.1999 111.72 45.7815 112.301 46.4939 112.301H89.5061ZM84.9565 90.7378L90.8001 96.5815L90.7997 67.9934C90.7997 67.2806 90.2181 66.6994 89.5057 66.6994H46.4934C45.7806 66.6994 45.1994 67.281 45.1994 67.9934V92.2244L54.1246 83.3059C54.7811 82.6432 55.6622 82.281 56.5934 82.281C57.5247 82.281 58.3996 82.6432 59.0623 83.3059L73.2565 97.5001L80.0187 90.7378C80.6753 90.0752 81.5564 89.7129 82.4876 89.7129C83.4189 89.7129 84.2938 90.0752 84.9565 90.7378ZM68.1602 83.06C68.1602 79.8099 70.8038 77.1602 74.06 77.1602C77.3162 77.1602 79.9599 79.8099 79.9599 83.06C79.9599 86.3102 77.3163 88.9599 74.06 88.9599C70.8099 88.9599 68.1602 86.3102 68.1602 83.06ZM70.36 83.0662C70.36 85.1038 72.0163 86.7662 74.06 86.7662C76.1038 86.7662 77.76 85.1039 77.76 83.0662C77.76 81.0286 76.0978 79.3662 74.06 79.3662C72.0224 79.3662 70.36 81.0285 70.36 83.0662Z" fill="#595959"/>
</svg>
