<svg width="18" height="18" viewBox="0 0 18 18" fill="none" xmlns="http://www.w3.org/2000/svg">
<path d="M17.8487 16.65L12.2387 11.21C13.2087 10.07 13.7987 8.59999 13.7987 6.98999C13.7987 3.40999 10.8787 0.48999 7.29871 0.48999C3.71871 0.48999 0.798706 3.40999 0.798706 6.98999C0.798706 10.57 3.71871 13.49 7.29871 13.49C8.91871 13.49 10.3887 12.89 11.5287 11.92L17.1487 17.37C17.2487 17.46 17.3687 17.51 17.4987 17.51C17.6287 17.51 17.7587 17.46 17.8587 17.36C18.0487 17.16 18.0487 16.84 17.8487 16.65ZM1.79871 6.98999C1.79871 3.95999 4.26871 1.48999 7.29871 1.48999C10.3287 1.48999 12.7987 3.95999 12.7987 6.98999C12.7987 10.02 10.3287 12.49 7.29871 12.49C4.26871 12.49 1.79871 10.02 1.79871 6.98999Z" fill="white"/>
</svg>
