<svg width="18" height="18" viewBox="0 0 18 18" fill="none" xmlns="http://www.w3.org/2000/svg">
<path d="M17.05 16.65L11.44 11.21C12.41 10.07 13 8.59999 13 6.98999C13 3.40999 10.08 0.48999 6.5 0.48999C2.92 0.48999 0 3.40999 0 6.98999C0 10.57 2.92 13.49 6.5 13.49C8.12 13.49 9.59 12.89 10.73 11.92L16.35 17.37C16.45 17.46 16.57 17.51 16.7 17.51C16.83 17.51 16.96 17.46 17.06 17.36C17.25 17.16 17.25 16.84 17.05 16.65ZM1 6.98999C1 3.95999 3.47 1.48999 6.5 1.48999C9.53 1.48999 12 3.95999 12 6.98999C12 10.02 9.53 12.49 6.5 12.49C3.47 12.49 1 10.02 1 6.98999Z" fill="#1B1C1E"/>
</svg>
