<svg width="17" height="18" viewBox="0 0 17 18" fill="none" xmlns="http://www.w3.org/2000/svg">
<path d="M8.5 0.5C3.81 0.5 0 4.31 0 9C0 13.69 3.81 17.5 8.5 17.5C13.19 17.5 17 13.69 17 9C17 4.31 13.19 0.5 8.5 0.5ZM8.5 1.5C12.64 1.5 16 4.86 16 9C16 10.44 15.58 11.78 14.88 12.93C13.79 11.45 12.26 10.42 10.51 9.97C11.21 9.39 11.66 8.53 11.66 7.55C11.66 5.81 10.24 4.39 8.5 4.39C6.76 4.39 5.34 5.81 5.34 7.55C5.34 8.52 5.79 9.39 6.49 9.97C4.75 10.42 3.22 11.46 2.12 12.93C1.42 11.78 1 10.44 1 9C1 4.86 4.36 1.5 8.5 1.5Z" fill="white"/>
</svg>
