<svg width="79" height="14" viewBox="0 0 79 14" fill="none" xmlns="http://www.w3.org/2000/svg">
<path fill-rule="evenodd" clip-rule="evenodd" d="M7 10.5L2.8855 12.6631L3.6713 8.08156L0.342604 4.83688L4.94275 4.16844L7 0L9.05725 4.16844L13.6574 4.83688L10.3287 8.08156L11.1145 12.6631L7 10.5Z" fill="#CCCCCC"/>
<path fill-rule="evenodd" clip-rule="evenodd" d="M23 10.5L18.8855 12.6631L19.6713 8.08156L16.3426 4.83688L20.9428 4.16844L23 0L25.0572 4.16844L29.6574 4.83688L26.3287 8.08156L27.1145 12.6631L23 10.5Z" fill="#CCCCCC"/>
<path fill-rule="evenodd" clip-rule="evenodd" d="M40 10.5L35.8855 12.6631L36.6713 8.08156L33.3426 4.83688L37.9428 4.16844L40 0L42.0572 4.16844L46.6574 4.83688L43.3287 8.08156L44.1145 12.6631L40 10.5Z" fill="#CCCCCC"/>
<path fill-rule="evenodd" clip-rule="evenodd" d="M56 10.5L51.8855 12.6631L52.6713 8.08156L49.3426 4.83688L53.9428 4.16844L56 0L58.0572 4.16844L62.6574 4.83688L59.3287 8.08156L60.1145 12.6631L56 10.5Z" fill="#CCCCCC"/>
<path fill-rule="evenodd" clip-rule="evenodd" d="M72 10.5L67.8855 12.6631L68.6713 8.08156L65.3426 4.83688L69.9428 4.16844L72 0L74.0572 4.16844L78.6574 4.83688L75.3287 8.08156L76.1145 12.6631L72 10.5Z" fill="#CCCCCC"/>
</svg>
