<svg width="13" height="12" viewBox="0 0 13 12" fill="none" xmlns="http://www.w3.org/2000/svg">
<path d="M2.4426 5.33104C2.07315 4.92053 1.44086 4.88725 1.03035 5.25671C0.619835 5.62616 0.586557 6.25845 0.956016 6.66896L2.4426 5.33104ZM6.19931 11L5.45602 11.669C5.67263 11.9096 5.99238 12.0305 6.31404 11.9934C6.63571 11.9562 6.91948 11.7656 7.07553 11.4819L6.19931 11ZM12.5755 1.48192C12.8417 0.997998 12.6651 0.38994 12.1812 0.123784C11.6973 -0.142372 11.0893 0.0341606 10.8231 0.518081L12.5755 1.48192ZM0.956016 6.66896L5.45602 11.669L6.9426 10.331L2.4426 5.33104L0.956016 6.66896ZM7.07553 11.4819L12.5755 1.48192L10.8231 0.518081L5.32309 10.5181L7.07553 11.4819Z" fill="white"/>
</svg>
