<svg width="241" height="155" viewBox="0 0 241 155" fill="none" xmlns="http://www.w3.org/2000/svg">
<rect width="241" height="155" fill="#595959"/>
<path fill-rule="evenodd" clip-rule="evenodd" d="M98.9939 52.5H142.006C143.931 52.5 145.5 54.0686 145.5 55.9939V99.0061C145.5 100.931 143.931 102.5 142.006 102.5H98.9939C97.0686 102.5 95.5 100.931 95.5 99.0061V55.9939C95.5 54.0686 97.0686 52.5 98.9939 52.5ZM142.006 100.301C142.719 100.301 143.3 99.7191 143.3 99.0067L143.306 99.0066L143.306 87.6941L135.906 80.294C135.656 80.0503 135.331 79.9129 134.987 79.9129C134.638 79.9129 134.312 80.0503 134.069 80.294L127.313 87.0567L132.481 92.2254C132.912 92.657 132.912 93.3506 132.481 93.7818C132.269 94.0002 131.987 94.1066 131.706 94.1066C131.425 94.1066 131.143 93.9941 130.931 93.7818L110.006 72.8566C109.5 72.3504 108.681 72.3504 108.175 72.8566L97.6999 83.3315V99.0067C97.6999 99.7195 98.2815 100.301 98.9939 100.301H142.006ZM137.456 78.7378L143.3 84.5815L143.3 55.9934C143.3 55.2806 142.718 54.6994 142.006 54.6994H98.9934C98.2806 54.6994 97.6994 55.281 97.6994 55.9934V80.2244L106.625 71.3059C107.281 70.6432 108.162 70.281 109.093 70.281C110.025 70.281 110.9 70.6432 111.562 71.3059L125.756 85.5001L132.519 78.7378C133.175 78.0752 134.056 77.7129 134.988 77.7129C135.919 77.7129 136.794 78.0752 137.456 78.7378ZM120.661 71.06C120.661 67.8099 123.305 65.1602 126.561 65.1602C129.817 65.1602 132.461 67.8099 132.461 71.06C132.461 74.3102 129.817 76.9599 126.561 76.9599C123.311 76.9599 120.661 74.3102 120.661 71.06ZM122.861 71.0662C122.861 73.1038 124.517 74.7662 126.561 74.7662C128.605 74.7662 130.261 73.1039 130.261 71.0662C130.261 69.0286 128.599 67.3662 126.561 67.3662C124.523 67.3662 122.861 69.0285 122.861 71.0662Z" fill="#F1F1F1"/>
</svg>
