<svg width="93" height="24" viewBox="0 0 93 24" fill="none" xmlns="http://www.w3.org/2000/svg">
<g clip-path="url(#clip0_184_1602)">
<path d="M92.4312 5.23438H89.6572V23.9995H92.4312V5.23438Z" fill="white"/>
<path d="M48.2709 5.23438V19.4429C48.2709 19.629 48.2709 21.2565 46.4982 21.2565H30.1616C28.3889 21.2565 28.3889 19.629 28.3889 19.4429V5.23438H15.5879V23.9994H18.3788V7.98581H25.6008V20.1452C25.6008 21.6485 26.612 23.9994 29.5256 23.9994H47.1145C50.0338 23.9994 51.0463 21.6485 51.0463 20.1452C51.0463 18.6461 51.0435 5.90425 51.0435 5.23438H48.2709Z" fill="white"/>
<path d="M82.4777 5.23438L70.2125 21.4426L57.9446 5.23438H53.6094V23.9994H56.3961V7.73479L68.6316 23.9994H71.7949L84.0121 7.73479V23.9994H86.8058V5.23438H82.4777Z" fill="white"/>
<path d="M0 0V7.98637H10.0101V23.9986H12.7982V5.23493H2.78811V2.7317H92.432V0H0Z" fill="white"/>
</g>
<defs>
<clipPath id="clip0_184_1602">
<rect width="92.432" height="24" fill="white"/>
</clipPath>
</defs>
</svg>
