<svg width="100" height="26" viewBox="0 0 100 26" fill="none" xmlns="http://www.w3.org/2000/svg">
<g clip-path="url(#clip0_1401_892)">
<path d="M99.9992 5.55164H96.998V25.454H99.9992V5.55164Z" fill="black"/>
<path d="M52.2233 5.55164V20.6212C52.2233 20.8187 52.2233 22.5448 50.3054 22.5448H32.6312C30.7134 22.5448 30.7134 20.8187 30.7134 20.6212V5.55164H16.8643V25.454H19.8837V8.46983H27.697V21.3661C27.697 22.9606 28.791 25.454 31.9431 25.454H50.9721C54.1304 25.454 55.2259 22.9606 55.2259 21.3661C55.2259 19.7761 55.2229 6.26211 55.2229 5.55164H52.2233Z" fill="black"/>
<path d="M89.2307 5.55164L75.9613 22.7422L62.6889 5.55164H57.9988V25.454H61.0136V8.20359L74.251 25.454H77.6732L90.8907 8.20359V25.454H93.9132V5.55164H89.2307Z" fill="black"/>
<path d="M0 0V8.47039H10.8297V25.4531H13.8461V5.5522H3.01639V2.89725H100V0H0Z" fill="black"/>
</g>
<defs>
<clipPath id="clip0_1401_892">
<rect width="100" height="25.4545" fill="white"/>
</clipPath>
</defs>
</svg>
