<svg width="32" height="32" viewBox="0 0 32 32" fill="none" xmlns="http://www.w3.org/2000/svg">
<path fill-rule="evenodd" clip-rule="evenodd" d="M2.23607 0H29.7639C30.9961 0 32 1.00393 32 2.23607V29.7639C32 30.9961 30.9958 32 29.7639 32H2.23607C1.00393 32 0 30.9958 0 29.7639V2.23607C0 1.00393 1.00393 0 2.23607 0ZM29.7639 30.5924C30.2201 30.5924 30.5921 30.2202 30.5921 29.7643L30.5961 29.7642L30.5958 22.5242L25.8598 17.7881C25.6999 17.6322 25.4917 17.5443 25.2719 17.5443C25.0481 17.5443 24.8399 17.6322 24.684 17.7881L20.36 22.1163L23.668 25.4243C23.944 25.7005 23.944 26.1444 23.668 26.4204C23.5319 26.5602 23.3519 26.6282 23.1719 26.6282C22.992 26.6282 22.8117 26.5562 22.6759 26.4204L9.28372 13.0282C8.95979 12.7043 8.4358 12.7043 8.11186 13.0282L1.40793 19.7321V29.7643C1.40793 30.2205 1.78016 30.5924 2.23607 30.5924H29.7639ZM26.8521 16.7922L30.5921 20.5321L30.5918 2.23579C30.5918 1.77957 30.2196 1.40764 29.7636 1.40764H2.23579C1.77957 1.40764 1.40764 1.77987 1.40764 2.23579V17.7436L7.11971 12.0358C7.53993 11.6117 8.10379 11.3798 8.69979 11.3798C9.29579 11.3798 9.85575 11.6117 10.2799 12.0358L19.3641 21.1201L23.692 16.7922C24.1122 16.3681 24.6761 16.1362 25.2721 16.1362C25.8681 16.1362 26.428 16.3681 26.8521 16.7922ZM16.3125 11.2386C16.3125 9.30715 18.0044 7.73242 20.0884 7.73242C22.1724 7.73242 23.8644 9.30715 23.8644 11.2386C23.8644 13.1701 22.1724 14.7449 20.0884 14.7449C18.0084 14.7449 16.3125 13.1701 16.3125 11.2386ZM17.7204 11.2423C17.7204 12.4532 18.7804 13.4411 20.0884 13.4411C21.3964 13.4411 22.4564 12.4533 22.4564 11.2423C22.4564 10.0314 21.3926 9.04343 20.0884 9.04343C18.7844 9.04343 17.7204 10.0313 17.7204 11.2423Z" fill="#595959"/>
</svg>
