<svg width="27" height="16" viewBox="0 0 27 16" fill="none" xmlns="http://www.w3.org/2000/svg">
<g id="Group">
<path id="Vector" d="M0 14.0869H27V15.2609H0V14.0869Z" fill="white"/>
<path id="Vector_2" d="M0 11.7393H27V12.9132H0V11.7393Z" fill="white"/>
<path id="Vector_3" d="M0 9.39111H27V10.5651H0V9.39111Z" fill="white"/>
<path id="Vector_4" d="M2.34766 2.34766H3.52162V3.52162H2.34766V2.34766Z" fill="white"/>
<path id="Vector_5" d="M9.39111 3.52113H10.5651V2.34717H9.39111V3.52113Z" fill="white"/>
<path id="Vector_6" d="M0 2.34766H1.17396V3.52162H0V2.34766Z" fill="white"/>
<path id="Vector_7" d="M11.7393 2.34766H27.0002V3.52162H11.7393V2.34766Z" fill="white"/>
<path id="Vector_8" d="M7.04346 2.34766H8.21742V3.52162H7.04346V2.34766Z" fill="white"/>
<path id="Vector_9" d="M4.6958 2.34766H5.86977V3.52162H4.6958V2.34766Z" fill="white"/>
<path id="Vector_10" d="M2.34766 4.69531H3.52162V5.86928H2.34766V4.69531Z" fill="white"/>
<path id="Vector_11" d="M9.39111 5.86906H10.5651V4.69531H9.39111V5.86906Z" fill="white"/>
<path id="Vector_12" d="M0 4.69531H1.17396V5.86928H0V4.69531Z" fill="white"/>
<path id="Vector_13" d="M11.7393 4.69531H27.0002V5.86928H11.7393V4.69531Z" fill="white"/>
<path id="Vector_14" d="M7.04346 4.69531H8.21742V5.86928H7.04346V4.69531Z" fill="white"/>
<path id="Vector_15" d="M4.6958 4.69531H5.86977V5.86928H4.6958V4.69531Z" fill="white"/>
<path id="Vector_16" d="M2.34766 7.04297H3.52162V8.21693H2.34766V7.04297Z" fill="white"/>
<path id="Vector_17" d="M9.39111 8.21742H10.5651V7.04346H9.39111V8.21742Z" fill="white"/>
<path id="Vector_18" d="M0 7.04297H1.17396V8.21693H0V7.04297Z" fill="white"/>
<path id="Vector_19" d="M11.7393 7.04297H27.0002V8.21693H11.7393V7.04297Z" fill="white"/>
<path id="Vector_20" d="M7.04346 7.04297H8.21742V8.21693H7.04346V7.04297Z" fill="white"/>
<path id="Vector_21" d="M4.6958 7.04297H5.86977V8.21693H4.6958V7.04297Z" fill="white"/>
<path id="Vector_22" d="M2.34766 0H3.52162V1.17396H2.34766V0Z" fill="white"/>
<path id="Vector_23" d="M10.5656 0H9.3916V1.17375H10.5656V0Z" fill="white"/>
<path id="Vector_24" d="M0 0H1.17396V1.17396H0V0Z" fill="white"/>
<path id="Vector_25" d="M11.7393 0H27.0002V1.17396H11.7393V0Z" fill="white"/>
<path id="Vector_26" d="M7.04346 0H8.21742V1.17396H7.04346V0Z" fill="white"/>
<path id="Vector_27" d="M4.6958 0H5.86977V1.17396H4.6958V0Z" fill="white"/>
</g>
</svg>
