<svg width="17" height="18" viewBox="0 0 17 18" fill="none" xmlns="http://www.w3.org/2000/svg">
<path d="M8.49997 0.5C3.80997 0.5 -3.05176e-05 4.31 -3.05176e-05 9C-3.05176e-05 13.69 3.80997 17.5 8.49997 17.5C13.19 17.5 17 13.69 17 9C17 4.31 13.19 0.5 8.49997 0.5ZM8.49997 1.5C12.64 1.5 16 4.86 16 9C16 10.44 15.58 11.78 14.88 12.93C13.79 11.45 12.26 10.42 10.51 9.97C11.21 9.39 11.66 8.53 11.66 7.55C11.66 5.81 10.24 4.39 8.49997 4.39C6.75997 4.39 5.33997 5.81 5.33997 7.55C5.33997 8.52 5.78997 9.39 6.48997 9.97C4.74997 10.42 3.21997 11.46 2.11997 12.93C1.41997 11.78 0.999969 10.44 0.999969 9C0.999969 4.86 4.35997 1.5 8.49997 1.5ZM6.33997 7.55C6.33997 6.36 7.30997 5.39 8.49997 5.39C9.68997 5.39 10.66 6.36 10.66 7.55C10.66 8.74 9.68997 9.71 8.49997 9.71C7.30997 9.71 6.33997 8.74 6.33997 7.55ZM8.49997 16.5C6.17997 16.5 4.10997 15.44 2.73997 13.79C4.03997 11.86 6.16997 10.7 8.49997 10.7C10.84 10.7 12.96 11.85 14.26 13.78C12.89 15.44 10.82 16.5 8.49997 16.5Z" fill="white"/>
</svg>
