<svg width="221" height="135" viewBox="0 0 221 135" fill="none" xmlns="http://www.w3.org/2000/svg">
<rect width="221" height="135" fill="#F1F1F1"/>
<path fill-rule="evenodd" clip-rule="evenodd" d="M88.9939 42.5H132.006C133.931 42.5 135.5 44.0686 135.5 45.9939V89.0061C135.5 90.9314 133.931 92.5 132.006 92.5H88.9939C87.0686 92.5 85.5 90.9309 85.5 89.0061V45.9939C85.5 44.0686 87.0686 42.5 88.9939 42.5ZM132.006 90.3007C132.719 90.3007 133.3 89.7191 133.3 89.0067L133.306 89.0066L133.306 77.6941L125.906 70.294C125.656 70.0503 125.331 69.9129 124.987 69.9129C124.638 69.9129 124.312 70.0503 124.069 70.294L117.313 77.0567L122.481 82.2254C122.912 82.657 122.912 83.3506 122.481 83.7818C122.269 84.0002 121.987 84.1066 121.706 84.1066C121.425 84.1066 121.143 83.9941 120.931 83.7818L100.006 62.8566C99.4997 62.3504 98.6809 62.3504 98.1748 62.8566L87.6999 73.3315V89.0067C87.6999 89.7195 88.2815 90.3007 88.9939 90.3007H132.006ZM127.456 68.7378L133.3 74.5815L133.3 45.9934C133.3 45.2806 132.718 44.6994 132.006 44.6994H88.9934C88.2806 44.6994 87.6994 45.281 87.6994 45.9934V70.2244L96.6246 61.3059C97.2811 60.6432 98.1622 60.281 99.0934 60.281C100.025 60.281 100.9 60.6432 101.562 61.3059L115.756 75.5001L122.519 68.7378C123.175 68.0752 124.056 67.7129 124.988 67.7129C125.919 67.7129 126.794 68.0752 127.456 68.7378ZM110.661 61.06C110.661 57.8099 113.305 55.1602 116.561 55.1602C119.817 55.1602 122.461 57.8099 122.461 61.06C122.461 64.3102 119.817 66.9599 116.561 66.9599C113.311 66.9599 110.661 64.3102 110.661 61.06ZM112.861 61.0662C112.861 63.1038 114.517 64.7662 116.561 64.7662C118.605 64.7662 120.261 63.1039 120.261 61.0662C120.261 59.0286 118.599 57.3662 116.561 57.3662C114.523 57.3662 112.861 59.0285 112.861 61.0662Z" fill="#595959"/>
</svg>
