<svg class="nav-logo-svg-new removeFocusIndicator" version="1.1" id="Layer_1" xmlns="http://www.w3.org/2000/svg" xmlns:xlink="http://www.w3.org/1999/xlink" x="0px" y="0px" width="122px" height="48px" viewBox="0 0 122 48" enable-background="new 0 0 122 48" xml:space="preserve">
<path d="M0,0v8.985h11.139V27h3.102V5.889H3.101V3.074h99.735V0H0z M32.852,27c-3.243,0-4.37-2.646-4.37-4.335V8.985h-8.034V27
    h-3.105V5.889h14.242v15.987c0,0.21,0,2.04,1.974,2.04h18.174c1.974,0,1.974-1.83,1.974-2.04V5.889h3.086
    c0,0,0.002,15.087,0.002,16.775c0,1.69-1.129,4.335-4.373,4.335H32.852z M76.356,27L62.742,8.703V27h-3.1V5.889h4.825l13.648,18.233
    L91.761,5.889h4.817V27h-3.109V8.703L79.874,27H76.356z M103,27h-3.102V5.889H103V27z"></path>
</svg>
